<svg aria-hidden="true" style="position: absolute; width: 0; height: 0; overflow: hidden;" version="1.1"
    xmlns="http://www.w3.org/2000/svg"
    xmlns:xlink="http://www.w3.org/1999/xlink">
    <defs>
        <symbol id="icon-authenticity" viewBox="0 0 23 32">
            <path d="M5.787 21.444c0-3.254 2.647-5.901 5.901-5.901s5.901 2.647 5.901 5.901c0 3.254-2.647 5.901-5.901 5.901s-5.901-2.647-5.901-5.901zM7.597 22.149l2.92 2.92 5.261-5.261-1.326-1.326-3.935 3.935-1.594-1.594-1.326 1.326z"></path>
            <path d="M17.682 3.651h-2.343c-0-2.017-1.635-3.651-3.652-3.651s-3.651 1.635-3.651 3.651h-2.343v4.681h11.989v-4.681h0z"></path>
            <path d="M19.557 10.207v-6.556h3.775v28.349h-23.289v-28.349h3.775v6.556h15.739zM3.912 21.444c0 4.287 3.488 7.776 7.776 7.776s7.776-3.488 7.776-7.776c0-4.287-3.488-7.776-7.776-7.776s-7.776 3.488-7.776 7.776z"></path>
        </symbol>
        <symbol id="icon-bank-bayers" viewBox="0 0 32 32">
            <path d="M12.501 11.224l-1.389 1.259c0.984 1.226 2.317 2.241 3.951 2.566v1.902h1.875v-1.773c1.785-0.122 3.596-1.469 3.9-3.258 0.424-2.43-1.707-3.884-3.9-4.558v-3.683c0.947 0.098 2.014 0.857 2.785 1.518l1.163-1.471c-1.078-1.001-2.83-1.908-3.948-1.938v-1.785h-1.875v1.891c-1.474 0.316-2.685 1.486-2.882 2.922-0.179 2.061 0.784 3.084 2.882 3.813v4.486c-1.644-0.442-2.562-1.891-2.562-1.891zM14.035 5.092c0.082-0.549 0.459-0.996 1.028-1.235v2.738c-1.051-0.343-1.105-0.987-1.028-1.503zM16.938 13.292c1.17-0.169 2.054-0.944 2.054-1.702 0-1.529-1.832-2.146-2.037-2.216-0.008-0.003-0.014-0.005-0.017-0.006v3.923z"></path>
            <path d="M28.772 25.818v-3.432l0.415 0.249 0.965-1.608-6.621-3.972-6.621 3.972 0.965 1.608 0.415-0.249v3.432h-4.58v-3.432l0.415 0.249 0.965-1.608-6.621-3.972-6.621 3.972 0.965 1.608 0.415-0.249v3.432h-3.228v1.875h32v-1.875l-3.228-0zM9.406 25.818v-2.29h-1.875v2.29h-2.429v-4.557l3.366-2.020 3.366 2.020v4.557h-2.429zM24.469 23.528h-1.875v2.29h-2.429v-4.557l3.366-2.020 3.366 2.020v4.557h-2.429v-2.29z"></path>
            <path d="M0 30.122h32v1.875h-32v-1.875z"></path>
        </symbol>
        <symbol id="icon-bank-seller" viewBox="0 0 32 32">
            <path d="M20.173 4.333h11.827v16.938h-11.827v10.729h-8.347v-10.729h-11.827v-16.938h11.827v-1.829l4.173-2.504 4.173 2.504v1.829zM16 2.187l-2.298 1.379v0.767h4.597v-0.768l-2.298-1.379zM18.298 30.125h-4.597v-8.854h4.597v8.854zM1.875 19.396h28.25v-13.187h-28.25v13.187z"></path>
            <path d="M12.375 15.2l-0.688 1.808-1.752-0.667 2.911-7.644 1.557-0.002 2.887 7.649-1.754 0.662-0.681-1.806h-2.478zM13.090 13.325h1.056l-0.526-1.393-0.531 1.393z"></path>
            <path d="M22.063 14.862h-2.189v-6.247h-1.875v8.122h4.064v-1.875z"></path>
            <path d="M27.632 14.862h-2.61v-1.223h2.418v-1.875h-2.418v-1.223h2.61v-1.875h-4.485v8.070h4.485v-1.875z"></path>
            <path d="M6.593 10.545c0.707-0.313 1.769 0.449 2.338 0.961l1.163-1.471c-1.708-1.563-3.141-1.575-4.052-1.283-0.907 0.274-1.551 0.992-1.683 1.879-0.127 0.852 0.239 1.671 0.955 2.138 0.124 0.081 0.98 0.447 2.006 0.832 0.382 0.141 0.771 0.393 0.72 0.678-0.042 0.235-0.369 0.582-0.939 0.582-0.921 0.053-1.603-0.697-2.114-1.314l-1.389 1.259c0.858 1.098 2.023 1.96 3.503 1.929 1.393 0 2.564-0.895 2.785-2.128 0.167-0.934-0.249-2.151-1.917-2.766-0.741-0.273-1.432-0.57-1.672-0.675-0.169-0.212-0.105-0.459 0.296-0.622z"></path>
        </symbol>
        <symbol id="icon-building" viewBox="0 0 23 32">
            <path fill="#58bebf" style="fill: var(--color1, #58bebf)" d="M7.47 31.729v-5.673h8.363v5.673h6.303v-30.558h-20.97v30.558h6.304zM15.833 3.978h3.527v3.567h-3.527v-3.567zM19.361 9.163h-3.527v3.568h3.527v-3.568zM15.833 14.349h3.527v3.566h-3.527v-3.566zM19.361 19.533h-3.527v3.569h3.527v-3.569zM9.888 3.978h3.528v3.567h-3.528v-3.567zM13.417 9.163h-3.528v3.568h3.528v-3.568zM9.888 14.349h3.528v3.566h-3.528v-3.566zM13.417 19.533h-3.528v3.569h3.528v-3.569zM3.943 3.978h3.527v3.567h-3.527v-3.567zM7.471 9.163h-3.527v3.568h3.527v-3.568zM3.943 14.349h3.527v3.566h-3.527v-3.566zM7.471 19.533h-3.527v3.569h3.527v-3.569z"></path>
        </symbol>
        <symbol id="icon-circle" viewBox="0 0 32 32">
            <path d="M16 16l-0.012-16c-8.773 0.007-15.988 7.227-15.988 16 0 8.777 7.223 16 16 16s16-7.223 16-16h-16z"></path>
        </symbol>
        <symbol id="icon-cut-space-logo" viewBox="0 0 32 32">
            <path fill="#58bebf" style="fill: var(--color1, #58bebf)" d="M16 16l7.708-7.72c-4.233-4.226-11.193-4.224-15.422 0.006-4.232 4.232-4.232 11.196 0 15.428s11.196 4.232 15.428 0l-7.714-7.714z"></path>
        </symbol>
        <symbol id="icon-entrepreneurship" viewBox="0 0 25 32">
            <path d="M16.8 0h7.2v8h-7.2v-8z"></path>
            <path d="M0 0h7.2v8h-7.2v-8z"></path>
            <path d="M16.8 22.4c0 2.209-1.97 4-4.4 4s-4.4-1.791-4.4-4c0-2.209 1.97-4 4.4-4s4.4 1.791 4.4 4z"></path>
            <path d="M2.4 22.8c0-5.081 4.298-9.2 9.6-9.2s9.6 4.119 9.6 9.2c0 5.081-4.298 9.2-9.6 9.2s-9.6-4.119-9.6-9.2zM5.753 22.8c0 3.301 2.803 5.987 6.247 5.987s6.247-2.686 6.247-5.987-2.803-5.987-6.247-5.987c-3.445 0-6.247 2.686-6.247 5.987z"></path>
            <path d="M7.838 12.15c0.826-0.364 1.683-0.618 2.563-0.761l-1.718-1.789h-7.082l3.842 4c0.735-0.586 1.536-1.072 2.395-1.45z"></path>
            <path d="M13.6 11.389c0.879 0.143 1.736 0.397 2.562 0.761 0.859 0.378 1.66 0.864 2.395 1.45l3.842-4h-7.082c-0.463 0.482-1.11 1.155-1.718 1.789z"></path>
        </symbol>
        <symbol id="icon-facebook" viewBox="0 0 32 32">
            <path fill="#4267b2" style="fill: var(--color4, #4267b2)" d="M30.234 0h-28.469c-0.975 0.001-1.765 0.791-1.765 1.766v28.469c0.001 0.975 0.791 1.765 1.766 1.765h28.467c0.975 0 1.766-0.79 1.766-1.766 0-0 0-0 0-0.001v-28.469c-0-0.975-0.791-1.765-1.766-1.765z"></path>
            <path fill="#fff" style="fill: var(--color2, #fff)" d="M22.094 32v-12.375h4.172l0.625-4.844h-4.797v-3.085c0-1.399 0.388-2.353 2.395-2.353h2.543v-4.321c-0.442-0.059-1.96-0.19-3.726-0.19-3.688 0-6.211 2.25-6.211 6.384v3.565h-4.156v4.844h4.156v12.375h5z"></path>
        </symbol>
        <symbol id="icon-hand" viewBox="0 0 39 32">
            <path d="M36.546 11.582h-7.876c-2.34 0-4.236 1.897-4.236 4.236v11.939c0 2.34 1.897 4.236 4.236 4.236h8.839l1.492-17.743c0.121-1.437-1.013-2.67-2.454-2.67z"></path>
            <path d="M20.197 0.006h-1.966l-0.76 9.416c-0.216 2.675-2.449 4.735-5.133 4.735h-1.476v15.263l1.476-1.153c0 0.036 2.194 1.938 3.661 1.6-0.002 1.361 2.836 2.127 4.197 2.127h3.52c-0.977-1.141-1.569-2.62-1.569-4.236v-11.939c0-1.98 0.888-3.756 2.286-4.953v-6.623c0-2.34-1.897-4.236-4.236-4.236z"></path>
            <path d="M0 12.627h8.577v18.323h-8.577v-18.323z"></path>
        </symbol>
        <symbol id="icon-linkedin" viewBox="0 0 34 32">
            <path fill="#069" style="fill: var(--color5, #069)" d="M0.475 31.96h7.168v-21.565h-7.168v21.565z"></path>
            <path fill="#069" style="fill: var(--color5, #069)" d="M4.106 0c-2.452 0-4.055 1.61-4.055 3.726 0 2.069 1.555 3.725 3.961 3.725h0.047c2.5 0 4.055-1.656 4.055-3.725-0.047-2.116-1.556-3.726-4.008-3.726z"></path>
            <path fill="#069" style="fill: var(--color5, #069)" d="M25.236 9.89c-3.803 0-5.507 2.090-6.46 3.56v-3.054h-7.168v21.564h7.168v-12.043c0-0.645 0.047-1.288 0.236-1.749 0.518-1.288 1.697-2.621 3.677-2.621 2.594 0 3.631 1.978 3.631 4.877v11.536h7.167v-12.365c0-6.624-3.536-9.706-8.252-9.706z"></path>
        </symbol>
        <symbol id="logoicon-first-client" viewBox="0 0 165 32">
            <path fill="#d8d8d8" style="fill: var(--color6, #d8d8d8)" d="M96.614 9.171c0.41-0.373 0.615-0.838 0.615-1.393 0-0.571-0.205-1.042-0.615-1.415s-0.951-0.56-1.624-0.56-1.214 0.186-1.624 0.56c-0.41 0.373-0.614 0.845-0.614 1.415 0 0.556 0.204 1.020 0.614 1.393s0.951 0.56 1.624 0.56c0.673 0 1.214-0.187 1.624-0.56zM48.45 20.592h-5.003v-12.639h-3.752v15.514h8.755v-2.875zM59.169 22.863c0.958-0.505 1.712-1.232 2.26-2.183s0.823-2.063 0.823-3.335c0-1.273-0.274-2.384-0.823-3.335s-1.302-1.679-2.26-2.183c-0.958-0.505-2.044-0.757-3.258-0.757s-2.304 0.252-3.27 0.757c-0.965 0.505-1.722 1.232-2.271 2.183s-0.823 2.063-0.823 3.335c0 1.273 0.274 2.384 0.823 3.335s1.306 1.679 2.271 2.183c0.965 0.505 2.055 0.757 3.27 0.757s2.3-0.252 3.258-0.757zM55.91 20.351c-0.717 0-1.32-0.256-1.81-0.768s-0.735-1.258-0.735-2.238c0-0.98 0.245-1.73 0.735-2.249s1.093-0.779 1.81-0.779c0.717 0 1.317 0.26 1.799 0.779s0.724 1.269 0.724 2.249c0 0.98-0.241 1.726-0.724 2.238s-1.083 0.768-1.799 0.768zM73.816 28.667c0.907-0.541 1.58-1.269 2.019-2.183s0.658-1.942 0.658-3.083v-12.178h-3.73v2.216c-0.322-0.731-0.819-1.309-1.492-1.733s-1.478-0.636-2.414-0.636c-1.009 0-1.913 0.252-2.71 0.757s-1.426 1.229-1.887 2.172c-0.461 0.944-0.691 2.059-0.691 3.346 0 1.273 0.23 2.384 0.691 3.335s1.090 1.679 1.887 2.183c0.797 0.505 1.701 0.757 2.71 0.757 0.936 0 1.741-0.212 2.414-0.636s1.17-1.002 1.492-1.733v2.15c0 0.98-0.238 1.693-0.713 2.139s-1.101 0.669-1.876 0.669c-0.673 0-1.218-0.139-1.635-0.417s-0.684-0.666-0.801-1.163h-3.708c0.219 1.492 0.881 2.673 1.986 3.544s2.578 1.306 4.421 1.306c1.346 0 2.472-0.271 3.379-0.812zM70.064 20.329c-0.805 0-1.452-0.263-1.942-0.79s-0.735-1.258-0.735-2.194c0-0.936 0.245-1.668 0.735-2.194s1.137-0.79 1.942-0.79c0.79 0 1.437 0.267 1.942 0.801s0.757 1.262 0.757 2.183c0 0.907-0.252 1.631-0.757 2.172s-1.152 0.812-1.942 0.812zM88.068 22.863c0.958-0.505 1.711-1.232 2.26-2.183s0.823-2.063 0.823-3.335c0-1.273-0.274-2.384-0.823-3.335s-1.302-1.679-2.26-2.183c-0.958-0.505-2.044-0.757-3.259-0.757s-2.304 0.252-3.269 0.757c-0.965 0.505-1.723 1.232-2.271 2.183s-0.823 2.063-0.823 3.335c0 1.273 0.274 2.384 0.823 3.335s1.306 1.679 2.271 2.183c0.965 0.505 2.055 0.757 3.269 0.757s2.3-0.252 3.259-0.757zM84.809 20.351c-0.717 0-1.32-0.256-1.81-0.768s-0.735-1.258-0.735-2.238c0-0.98 0.245-1.73 0.735-2.249s1.093-0.779 1.81-0.779c0.717 0 1.317 0.26 1.8 0.779s0.724 1.269 0.724 2.249-0.242 1.726-0.724 2.238c-0.483 0.512-1.083 0.768-1.8 0.768zM96.856 11.223v12.244h-3.752v-12.244h3.752zM103.197 21.25c0.308 0.731 0.798 1.309 1.47 1.733s1.477 0.636 2.414 0.636c1.010 0 1.912-0.252 2.71-0.757s1.426-1.232 1.887-2.183c0.46-0.951 0.691-2.063 0.691-3.335 0-1.287-0.231-2.403-0.691-3.346s-1.090-1.668-1.887-2.172c-0.798-0.505-1.701-0.757-2.71-0.757-0.936 0-1.741 0.212-2.414 0.636s-1.163 1.002-1.47 1.733v-2.216h-3.752v18.081h3.752v-8.053zM105.874 20.329c-0.79 0-1.437-0.271-1.942-0.812s-0.757-1.265-0.757-2.172c0-0.922 0.252-1.649 0.757-2.183s1.152-0.801 1.942-0.801c0.805 0 1.452 0.263 1.942 0.79s0.735 1.258 0.735 2.194c0 0.936-0.245 1.668-0.735 2.194s-1.138 0.79-1.942 0.79zM122.2 23.159c-0.717 0.307-1.565 0.461-2.546 0.461-1.653 0-2.977-0.366-3.971-1.097s-1.602-1.777-1.822-3.138h3.621c0.059 0.527 0.282 0.929 0.67 1.207s0.888 0.417 1.502 0.417c0.424 0 0.747-0.099 0.966-0.296s0.329-0.457 0.329-0.779c0-0.424-0.201-0.728-0.603-0.911s-1.058-0.377-1.964-0.581c-0.907-0.19-1.653-0.395-2.238-0.614s-1.090-0.574-1.514-1.064c-0.424-0.49-0.636-1.159-0.636-2.008 0-1.097 0.417-1.986 1.251-2.666s2.011-1.020 3.532-1.020c1.551 0 2.791 0.388 3.72 1.163s1.51 1.799 1.745 3.072h-3.511c-0.103-0.497-0.333-0.889-0.692-1.174s-0.808-0.428-1.349-0.428c-0.424 0-0.746 0.091-0.965 0.274s-0.329 0.443-0.329 0.779c0 0.38 0.201 0.666 0.603 0.856s1.035 0.38 1.898 0.571c0.936 0.219 1.704 0.442 2.304 0.669s1.119 0.596 1.558 1.108c0.439 0.512 0.658 1.2 0.658 2.063 0 0.702-0.19 1.324-0.571 1.865s-0.929 0.965-1.646 1.273zM130.911 23.598c0.921 0 1.73-0.212 2.424-0.636s1.218-0.995 1.569-1.712v2.216h3.774v-12.244h-3.774v6.495c0 0.892-0.219 1.58-0.658 2.063s-1.038 0.724-1.799 0.724c-0.731 0-1.313-0.23-1.745-0.691s-0.647-1.108-0.647-1.942v-6.649h-3.73v7.11c0 1.638 0.413 2.926 1.24 3.862s1.942 1.404 3.346 1.404zM145.020 16.972v6.495h-3.752v-12.244h3.752v2.085c0.322-0.688 0.816-1.229 1.481-1.624s1.445-0.592 2.337-0.592c0.936 0 1.763 0.216 2.48 0.647s1.258 1.050 1.624 1.854c0.424-0.761 1.006-1.368 1.745-1.821s1.554-0.68 2.446-0.68c1.506 0 2.692 0.464 3.554 1.393s1.295 2.22 1.295 3.873v7.11h-3.73v-6.671c0-0.775-0.209-1.379-0.626-1.81s-0.984-0.647-1.701-0.647c-0.746 0-1.335 0.23-1.767 0.691s-0.647 1.108-0.647 1.942v6.495h-3.752v-6.671c0-0.775-0.205-1.379-0.614-1.81s-0.973-0.647-1.69-0.647c-0.746 0-1.339 0.227-1.778 0.68s-0.658 1.104-0.658 1.953z"></path>
            <path fill="#fff" style="fill: var(--color2, #fff)" d="M165.181 9.752c0 1.010-0.819 1.829-1.829 1.829s-1.829-0.819-1.829-1.829c0-1.010 0.819-1.829 1.829-1.829s1.829 0.819 1.829 1.829z"></path>
            <path fill="#d8d8d8" style="fill: var(--color6, #d8d8d8)" d="M20.724 21.333c-0.001 0-0.003 0-0.004 0-0.157 5.75-4.734 10.362-10.358 10.362-5.723 0-10.362-4.776-10.362-10.667s4.639-10.667 10.362-10.667c0.001 0 0.003 0 0.004 0 0.157-5.75 4.734-10.362 10.358-10.362 5.723 0 10.362 4.776 10.362 10.667s-4.639 10.667-10.362 10.667zM10.362 10.667c0 5.89 4.637 10.664 10.358 10.667 0.003-0.101 0.004-0.203 0.004-0.305 0-5.89-4.637-10.664-10.358-10.667-0.003 0.101-0.004 0.203-0.004 0.305z"></path>
        </symbol>
        <symbol id="logoicon-second-client" viewBox="0 0 174 32">
            <path fill="#d8d8d8" style="fill: var(--color6, #d8d8d8)" d="M103.471 5.069h-4.292v3.739h4.292v-3.739zM48.728 21.342h-8.373v-15.404h-4.108v18.748h12.481v-3.344zM60.893 24.054c1.053-0.562 1.865-1.365 2.436-2.409s0.856-2.278 0.856-3.7c0-1.422-0.285-2.651-0.856-3.686s-1.382-1.839-2.436-2.409c-1.053-0.571-2.282-0.856-3.686-0.856-1.439 0-2.686 0.285-3.739 0.856s-1.865 1.374-2.436 2.409c-0.571 1.036-0.856 2.265-0.856 3.686s0.285 2.655 0.856 3.7c0.571 1.044 1.382 1.848 2.436 2.409s2.3 0.843 3.739 0.843c1.404 0 2.633-0.281 3.686-0.843zM57.206 21.868c-1.001 0-1.764-0.32-2.291-0.961s-0.79-1.628-0.79-2.962c0-1.317 0.268-2.295 0.803-2.936s1.295-0.961 2.278-0.961c0.965 0 1.712 0.32 2.238 0.961s0.79 1.619 0.79 2.936c0 1.334-0.263 2.322-0.79 2.962s-1.273 0.961-2.238 0.961zM78.416 28.925c1.22-1.106 1.83-2.73 1.83-4.871v-12.718h-3.95l-0.001 1.882-0.071-0.122c-0.278-0.445-0.647-0.833-1.108-1.162l-0.203-0.137c-0.834-0.535-1.795-0.803-2.883-0.803-1.159 0-2.186 0.281-3.081 0.843s-1.597 1.338-2.106 2.33c-0.509 0.992-0.764 2.155-0.764 3.489s0.255 2.502 0.764 3.502c0.509 1.001 1.211 1.777 2.106 2.33s1.922 0.829 3.081 0.829c0.72 0 1.391-0.136 2.014-0.408s1.154-0.628 1.593-1.066c0.251-0.251 0.464-0.51 0.641-0.778l0.017-0.028 0.001 2.334c0 1.011-0.242 1.779-0.727 2.305l-0.116 0.117c-0.562 0.527-1.413 0.79-2.554 0.79-0.79 0-1.589-0.097-2.396-0.29s-1.606-0.492-2.396-0.895l-0.606 2.949c1.58 0.825 3.423 1.238 5.53 1.238 2.37 0 4.165-0.553 5.385-1.659zM73.19 21.289c-0.966 0-1.734-0.325-2.304-0.974s-0.856-1.536-0.856-2.659c0-1.123 0.281-2.006 0.843-2.646s1.334-0.961 2.317-0.961c0.983 0 1.747 0.325 2.291 0.974s0.816 1.527 0.816 2.633c0 1.141-0.276 2.032-0.829 2.673s-1.312 0.961-2.278 0.961zM93.491 24.054c1.053-0.562 1.865-1.365 2.436-2.409s0.856-2.278 0.856-3.7c0-1.422-0.285-2.651-0.856-3.686s-1.382-1.839-2.436-2.409c-1.053-0.571-2.282-0.856-3.686-0.856-1.439 0-2.686 0.285-3.739 0.856s-1.865 1.374-2.436 2.409c-0.57 1.036-0.856 2.265-0.856 3.686s0.285 2.655 0.856 3.7c0.57 1.044 1.382 1.848 2.436 2.409s2.3 0.843 3.739 0.843c1.404 0 2.633-0.281 3.686-0.843zM89.805 21.868c-1.001 0-1.764-0.32-2.291-0.961s-0.79-1.628-0.79-2.962c0-1.317 0.268-2.295 0.803-2.936s1.295-0.961 2.278-0.961c0.966 0 1.712 0.32 2.238 0.961s0.79 1.619 0.79 2.936c0 1.334-0.263 2.322-0.79 2.962s-1.273 0.961-2.238 0.961zM103.312 24.686h-3.975v-13.35h3.975v13.35zM110.527 22.747l0.055 0.098c0.268 0.454 0.627 0.839 1.077 1.156l0.198 0.131c0.816 0.509 1.768 0.764 2.857 0.764 1.158 0 2.181-0.281 3.067-0.843s1.584-1.36 2.094-2.396c0.508-1.036 0.763-2.247 0.763-3.634s-0.255-2.611-0.763-3.673c-0.509-1.062-1.207-1.887-2.094-2.475s-1.909-0.882-3.067-0.882c-1.089 0-2.041 0.263-2.857 0.79-0.68 0.439-1.175 1.006-1.483 1.701l-0.042 0.103-0.252-2.252h-3.739c0.088 0.632 0.145 1.268 0.172 1.909s0.039 1.277 0.039 1.909v15.22h3.976l-0.001-7.626zM113.582 21.868c-1 0-1.764-0.334-2.29-1.001s-0.79-1.633-0.79-2.896c0-1.264 0.263-2.234 0.79-2.91s1.29-1.014 2.29-1.014c0.966 0 1.716 0.351 2.252 1.053s0.803 1.676 0.803 2.923-0.263 2.199-0.79 2.857c-0.527 0.658-1.281 0.987-2.265 0.987zM132.501 23.79c-1.009 0.737-2.4 1.106-4.174 1.106-2.545 0-4.555-0.544-6.030-1.633l1.080-2.765c0.702 0.509 1.488 0.9 2.357 1.172s1.742 0.408 2.619 0.408c0.685 0 1.211-0.11 1.58-0.329s0.553-0.522 0.553-0.908c0-0.334-0.132-0.592-0.395-0.777s-0.729-0.355-1.395-0.513l-2.186-0.527c-1.299-0.263-2.251-0.702-2.857-1.317s-0.908-1.431-0.908-2.449c0-0.825 0.241-1.558 0.724-2.199s1.154-1.145 2.014-1.514c0.86-0.369 1.861-0.553 3.002-0.553 0.965 0 1.896 0.145 2.791 0.434s1.712 0.698 2.448 1.224l-1.105 2.659c-0.685-0.474-1.382-0.834-2.094-1.080s-1.4-0.369-2.067-0.369c-0.649 0-1.158 0.114-1.527 0.342s-0.553 0.544-0.553 0.948c0 0.298 0.11 0.535 0.329 0.711s0.61 0.334 1.172 0.474l2.238 0.5c1.369 0.316 2.361 0.79 2.975 1.422s0.922 1.475 0.922 2.528c0 1.264-0.505 2.264-1.514 3.002zM141.361 24.896c1.001 0 1.874-0.241 2.62-0.724 0.542-0.351 0.99-0.821 1.342-1.408l0.014-0.025v1.947h3.871v-13.35h-4.003v7.373c0 0.93-0.254 1.676-0.763 2.238s-1.168 0.843-1.975 0.843c-0.72 0-1.251-0.198-1.593-0.592s-0.514-1.005-0.514-1.83v-8.031h-3.976v7.952c0 1.878 0.412 3.283 1.238 4.213s2.071 1.396 3.738 1.396zM156.397 17.339v7.346h-3.976v-9.532c0-0.632-0.013-1.268-0.039-1.909s-0.083-1.277-0.171-1.909h3.739l0.224 2.025 0.122-0.212c0.346-0.573 0.797-1.041 1.352-1.405 0.763-0.5 1.681-0.75 2.752-0.75 1.211 0 2.172 0.312 2.883 0.935l0.149 0.138c0.338 0.335 0.616 0.749 0.834 1.244l0.073 0.18 0.088-0.15c0.372-0.594 0.864-1.096 1.477-1.504 0.843-0.562 1.799-0.843 2.87-0.843 1.528 0 2.66 0.465 3.397 1.396s1.106 2.335 1.106 4.213v8.084h-3.976v-7.952c0-0.913-0.149-1.58-0.447-2.001s-0.79-0.632-1.475-0.632c-0.79 0-1.413 0.285-1.87 0.856s-0.685 1.365-0.685 2.383v7.346h-3.976v-7.952c0-0.913-0.149-1.58-0.447-2.001s-0.782-0.632-1.448-0.632c-0.807 0-1.435 0.285-1.882 0.856s-0.672 1.365-0.672 2.383z"></path>
            <path fill="#d8d8d8" style="fill: var(--color6, #d8d8d8)" d="M0 0.366v2.194h25.6v-2.194h-25.6z"></path>
            <path fill="#d8d8d8" style="fill: var(--color6, #d8d8d8)" d="M0 4.754v2.194h25.6v-2.194h-25.6z"></path>
            <path fill="#d8d8d8" style="fill: var(--color6, #d8d8d8)" d="M0 9.143v2.194h25.6v-2.194h-25.6z"></path>
            <path fill="#d8d8d8" style="fill: var(--color6, #d8d8d8)" d="M0 13.531v2.194h25.6v-2.194h-25.6z"></path>
            <path fill="#d8d8d8" style="fill: var(--color6, #d8d8d8)" d="M0 17.92v2.194h25.6v-2.194h-25.6z"></path>
            <path fill="#d8d8d8" style="fill: var(--color6, #d8d8d8)" d="M0 22.309v2.194h25.6v-2.194h-25.6z"></path>
            <path fill="#d8d8d8" style="fill: var(--color6, #d8d8d8)" d="M0 26.697v2.194h25.6v-2.194h-25.6z"></path>
        </symbol>
        <symbol id="logoicon-third-client" viewBox="0 0 175 32">
            <path fill="#d8d8d8" style="fill: var(--color6, #d8d8d8)" d="M100.472 10.562c-0.761 0-1.375-0.212-1.843-0.636s-0.702-0.951-0.702-1.58 0.234-1.156 0.702-1.58c0.468-0.424 1.082-0.636 1.843-0.636s1.375 0.201 1.843 0.603 0.702 0.918 0.702 1.547c0 0.658-0.235 1.203-0.702 1.635s-1.083 0.647-1.843 0.647zM52.219 23.771h-11.674v-15.36h4.345v11.915h7.329v3.445zM59.658 23.969c-1.273 0-2.421-0.263-3.445-0.79s-1.825-1.258-2.403-2.194c-0.578-0.936-0.867-1.997-0.867-3.182 0-1.17 0.289-2.224 0.867-3.16s1.375-1.664 2.392-2.183c1.017-0.519 2.169-0.779 3.456-0.779s2.443 0.26 3.467 0.779c1.024 0.519 1.821 1.243 2.392 2.172s0.856 1.986 0.856 3.171c0 1.185-0.285 2.245-0.856 3.182s-1.368 1.668-2.392 2.194c-1.024 0.527-2.18 0.79-3.467 0.79zM57.858 19.898c0.468 0.505 1.068 0.757 1.799 0.757s1.331-0.252 1.799-0.757c0.468-0.505 0.702-1.203 0.702-2.096 0-0.878-0.234-1.565-0.702-2.063s-1.068-0.746-1.799-0.746c-0.731 0-1.331 0.249-1.799 0.746s-0.702 1.185-0.702 2.063c0 0.892 0.234 1.591 0.702 2.096zM74.118 28.226c-1.17 0-2.267-0.132-3.291-0.395s-1.894-0.651-2.611-1.163l1.514-2.918c0.483 0.395 1.094 0.706 1.832 0.933s1.466 0.34 2.183 0.34c1.097 0 1.902-0.241 2.414-0.724s0.768-1.2 0.768-2.15v-0.395c-0.804 0.936-1.982 1.404-3.532 1.404-1.053 0-2.026-0.238-2.918-0.713s-1.602-1.148-2.128-2.019c-0.527-0.87-0.79-1.876-0.79-3.017 0-1.126 0.263-2.125 0.79-2.995s1.236-1.543 2.128-2.019c0.892-0.475 1.865-0.713 2.918-0.713 1.697 0 2.941 0.549 3.731 1.646v-1.448h3.971v9.721c0 2.209-0.6 3.866-1.799 4.97s-2.926 1.657-5.179 1.657zM72.516 19.163c0.497 0.453 1.119 0.68 1.865 0.68s1.364-0.227 1.854-0.68c0.49-0.453 0.735-1.039 0.735-1.755s-0.242-1.298-0.724-1.744c-0.483-0.446-1.105-0.669-1.865-0.669s-1.386 0.223-1.876 0.669c-0.49 0.446-0.735 1.028-0.735 1.744s0.249 1.302 0.746 1.755zM89.742 23.969c-1.273 0-2.421-0.263-3.445-0.79s-1.825-1.258-2.403-2.194c-0.578-0.936-0.866-1.997-0.866-3.182 0-1.17 0.289-2.224 0.866-3.16s1.375-1.664 2.392-2.183c1.016-0.519 2.168-0.779 3.456-0.779s2.443 0.26 3.467 0.779 1.821 1.243 2.392 2.172c0.571 0.929 0.856 1.986 0.856 3.171s-0.285 2.245-0.856 3.182c-0.571 0.936-1.368 1.668-2.392 2.194s-2.18 0.79-3.467 0.79zM87.942 19.898c0.468 0.505 1.068 0.757 1.8 0.757s1.331-0.252 1.799-0.757c0.469-0.505 0.702-1.203 0.702-2.096 0-0.878-0.234-1.565-0.702-2.063s-1.067-0.746-1.799-0.746-1.332 0.249-1.8 0.746c-0.468 0.497-0.702 1.185-0.702 2.063 0 0.892 0.235 1.591 0.702 2.096zM102.556 11.878h-4.169v11.893h4.169v-11.893zM109.424 28.028h-4.169v-16.15h3.972v1.185c0.776-0.922 1.946-1.382 3.511-1.382 1.083 0 2.066 0.252 2.952 0.757s1.587 1.222 2.106 2.15c0.52 0.929 0.779 2.008 0.779 3.237s-0.26 2.308-0.779 3.237c-0.519 0.929-1.221 1.646-2.106 2.15s-1.869 0.757-2.952 0.757c-1.39 0-2.494-0.417-3.314-1.251v5.31zM110.060 19.898c0.469 0.505 1.068 0.757 1.8 0.757s1.331-0.252 1.8-0.757c0.468-0.505 0.702-1.196 0.702-2.074s-0.234-1.569-0.702-2.074c-0.469-0.505-1.068-0.757-1.8-0.757s-1.331 0.252-1.8 0.757c-0.468 0.505-0.702 1.196-0.702 2.074s0.234 1.569 0.702 2.074zM124.828 23.969c1.243 0 2.308-0.168 3.192-0.505s1.554-0.801 2.008-1.393c0.454-0.592 0.68-1.262 0.68-2.008 0-0.907-0.238-1.613-0.713-2.117s-1.035-0.852-1.678-1.042c-0.644-0.19-1.455-0.358-2.436-0.505-0.775-0.117-1.331-0.23-1.668-0.34s-0.504-0.304-0.504-0.582c0-0.249 0.154-0.45 0.461-0.603s0.79-0.23 1.448-0.23c1.228 0 2.37 0.293 3.422 0.878l1.251-2.831c-0.571-0.322-1.28-0.57-2.129-0.746s-1.704-0.263-2.567-0.263c-1.214 0-2.257 0.172-3.127 0.516s-1.532 0.812-1.986 1.404c-0.453 0.592-0.68 1.269-0.68 2.030 0 0.922 0.241 1.638 0.724 2.15s1.057 0.863 1.723 1.053c0.665 0.19 1.474 0.344 2.424 0.461 0.746 0.102 1.291 0.208 1.635 0.318s0.516 0.296 0.516 0.56c0 0.263-0.143 0.464-0.428 0.603s-0.764 0.208-1.437 0.208c-0.731 0-1.47-0.099-2.216-0.296s-1.39-0.464-1.931-0.801l-1.25 2.853c0.585 0.366 1.36 0.662 2.326 0.889s1.945 0.34 2.94 0.34zM139.464 23.596c-0.614 0.249-1.265 0.373-1.953 0.373-1.536 0-2.761-0.454-3.675-1.36s-1.371-2.267-1.371-4.081v-6.649h4.169v5.968c0 0.892 0.168 1.543 0.505 1.953s0.826 0.614 1.47 0.614c0.658 0 1.196-0.23 1.613-0.691s0.626-1.167 0.626-2.117v-5.727h4.169v11.893h-3.972v-1.273c-0.439 0.483-0.965 0.848-1.58 1.097zM151.861 23.771v-5.903c0-0.892 0.19-1.558 0.571-1.997s0.892-0.658 1.536-0.658c1.2 0 1.8 0.812 1.8 2.436v6.122h4.169v-5.903c0-0.892 0.19-1.558 0.571-1.997s0.885-0.658 1.514-0.658c0.571 0 1.013 0.197 1.327 0.592s0.472 1.009 0.472 1.843v6.122h4.169v-6.802c0-1.77-0.435-3.094-1.305-3.972s-2.037-1.317-3.5-1.317c-0.848 0-1.631 0.161-2.347 0.483s-1.31 0.783-1.778 1.382c-0.41-0.629-0.944-1.097-1.602-1.404s-1.404-0.461-2.238-0.461c-0.717 0-1.379 0.121-1.986 0.362s-1.13 0.603-1.569 1.086v-1.251h-3.972v11.893h4.169zM174.167 23.267c-0.475 0.468-1.072 0.702-1.789 0.702-0.702 0-1.294-0.234-1.777-0.702s-0.725-1.061-0.725-1.777c0-0.731 0.238-1.324 0.713-1.777s1.072-0.68 1.788-0.68c0.731 0 1.332 0.227 1.8 0.68s0.702 1.046 0.702 1.777c0 0.717-0.238 1.309-0.713 1.777z"></path>
            <path fill="#d8d8d8" style="fill: var(--color6, #d8d8d8)" d="M15.787 0l15.787 31.573h-8.101c-10.784 0-17.798-11.349-12.975-20.994l5.29-10.579z"></path>
            <path fill="#d8d8d8" style="fill: var(--color6, #d8d8d8)" d="M8.96 27.093c0 2.474-2.006 4.48-4.48 4.48s-4.48-2.006-4.48-4.48c0-2.474 2.006-4.48 4.48-4.48s4.48 2.006 4.48 4.48z"></path>
        </symbol>
        <symbol id="logoicon-fourth-client" viewBox="0 0 158 32">
            <path fill="#d8d8d8" style="fill: var(--color6, #d8d8d8)" d="M97.026 10.914c0.28-0.117 0.524-0.275 0.734-0.473s0.376-0.428 0.497-0.691 0.182-0.544 0.182-0.843c0-0.307-0.061-0.594-0.182-0.861s-0.287-0.501-0.497-0.703c-0.211-0.202-0.455-0.36-0.734-0.473s-0.576-0.17-0.891-0.17c-0.307 0-0.595 0.057-0.861 0.17s-0.504 0.271-0.71 0.473-0.368 0.437-0.485 0.703c-0.117 0.267-0.176 0.554-0.176 0.861 0 0.299 0.059 0.58 0.176 0.843s0.279 0.493 0.485 0.691c0.206 0.198 0.443 0.356 0.71 0.473s0.553 0.176 0.861 0.176c0.315 0 0.612-0.059 0.891-0.176zM51.849 24.926h-10.647v-17.668h4.099v14.394h6.548v3.274zM58.907 25.12c-0.962 0-1.837-0.152-2.625-0.455s-1.467-0.736-2.037-1.298c-0.57-0.562-1.011-1.245-1.322-2.049s-0.467-1.708-0.467-2.71c0-0.994 0.156-1.89 0.467-2.686s0.752-1.473 1.322-2.031c0.57-0.558 1.249-0.986 2.037-1.285s1.663-0.449 2.625-0.449c0.954 0 1.823 0.15 2.607 0.449s1.457 0.728 2.019 1.285c0.562 0.558 0.998 1.235 1.31 2.031s0.467 1.692 0.467 2.686c0 1.002-0.156 1.906-0.467 2.71s-0.748 1.488-1.31 2.049c-0.562 0.562-1.235 0.994-2.019 1.298s-1.653 0.455-2.607 0.455zM56.955 21.416c0.412 0.61 1.063 0.916 1.952 0.916 0.865 0 1.502-0.305 1.91-0.916s0.612-1.538 0.612-2.783c0-1.245-0.204-2.171-0.612-2.777s-1.045-0.909-1.91-0.909c-0.889 0-1.54 0.303-1.952 0.909s-0.618 1.532-0.618 2.777c0 1.245 0.206 2.173 0.618 2.783zM71.809 29.255c1.002 0 1.892-0.127 2.668-0.382s1.431-0.592 1.964-1.013c0.534-0.42 0.938-0.901 1.213-1.443s0.412-1.095 0.412-1.661c0-0.606-0.111-1.106-0.333-1.498s-0.515-0.705-0.879-0.94c-0.364-0.234-0.78-0.404-1.249-0.509s-0.946-0.18-1.431-0.224c-0.485-0.044-0.962-0.073-1.431-0.085s-0.885-0.036-1.249-0.073c-0.364-0.036-0.657-0.101-0.879-0.194s-0.333-0.245-0.333-0.455c0-0.21 0.137-0.396 0.412-0.558 0.348 0.049 0.719 0.073 1.116 0.073 0.711 0 1.378-0.095 2.001-0.285s1.162-0.461 1.619-0.812c0.457-0.352 0.817-0.778 1.079-1.279s0.394-1.067 0.394-1.698c0-0.388-0.057-0.764-0.17-1.128l0.922-0.206c0.283-0.065 0.483-0.158 0.6-0.279s0.176-0.287 0.176-0.497v-1.37h-3.796c-0.404-0.194-0.843-0.344-1.316-0.449s-0.976-0.158-1.51-0.158c-0.736 0-1.419 0.095-2.049 0.285s-1.178 0.461-1.643 0.812c-0.465 0.352-0.831 0.78-1.097 1.285s-0.4 1.073-0.4 1.704c0 0.76 0.188 1.427 0.564 2.001s0.891 1.035 1.546 1.382c-0.291 0.137-0.542 0.295-0.752 0.473s-0.384 0.364-0.521 0.558c-0.137 0.194-0.238 0.394-0.303 0.6s-0.097 0.402-0.097 0.588c0 0.445 0.085 0.812 0.255 1.104s0.396 0.53 0.679 0.715c-0.59 0.218-1.055 0.519-1.395 0.903s-0.509 0.855-0.509 1.413c0 0.428 0.113 0.841 0.34 1.237s0.576 0.746 1.049 1.049c0.473 0.303 1.067 0.548 1.783 0.734s1.566 0.279 2.553 0.279zM71.015 17.851c-0.222-0.085-0.406-0.202-0.552-0.352s-0.253-0.325-0.321-0.527c-0.069-0.202-0.103-0.424-0.103-0.667 0-0.509 0.139-0.909 0.418-1.2s0.73-0.437 1.352-0.437c0.622 0 1.073 0.146 1.352 0.437s0.418 0.691 0.418 1.2c0 0.493-0.139 0.895-0.418 1.207s-0.73 0.467-1.352 0.467c-0.307 0-0.572-0.042-0.794-0.127zM71.882 26.672c-0.501 0-0.916-0.030-1.243-0.091s-0.588-0.143-0.782-0.249c-0.194-0.105-0.329-0.23-0.406-0.376s-0.115-0.307-0.115-0.485c0-0.251 0.075-0.475 0.224-0.673s0.342-0.378 0.576-0.54c0.348 0.040 0.699 0.067 1.055 0.079s0.699 0.026 1.031 0.042c0.331 0.016 0.641 0.040 0.928 0.073s0.538 0.085 0.752 0.158c0.214 0.073 0.384 0.17 0.509 0.291s0.188 0.283 0.188 0.485c0 0.186-0.040 0.358-0.121 0.515s-0.224 0.293-0.43 0.406c-0.206 0.113-0.483 0.202-0.831 0.267s-0.792 0.097-1.334 0.097zM88.264 24.666c0.785-0.303 1.458-0.736 2.019-1.298s0.999-1.245 1.309-2.049c0.312-0.804 0.467-1.708 0.467-2.71 0-0.994-0.156-1.89-0.467-2.686s-0.748-1.473-1.309-2.031-1.235-0.986-2.019-1.285c-0.784-0.299-1.653-0.449-2.607-0.449-0.962 0-1.837 0.15-2.625 0.449s-1.467 0.728-2.037 1.285c-0.57 0.558-1.011 1.235-1.322 2.031s-0.467 1.692-0.467 2.686c0 1.002 0.156 1.906 0.467 2.71s0.752 1.488 1.322 2.049c0.57 0.562 1.249 0.994 2.037 1.298s1.663 0.455 2.625 0.455c0.954 0 1.823-0.152 2.607-0.455zM85.657 22.331c-0.889 0-1.54-0.305-1.952-0.916s-0.618-1.538-0.618-2.783c0-1.245 0.206-2.171 0.618-2.777s1.063-0.909 1.952-0.909c0.866 0 1.502 0.303 1.91 0.909s0.613 1.532 0.613 2.777-0.205 2.173-0.613 2.783c-0.408 0.61-1.044 0.916-1.91 0.916zM98.003 24.926h-3.759v-12.575h3.759v12.575zM104.793 24.090c0.364 0.315 0.768 0.566 1.213 0.752s0.994 0.279 1.649 0.279c0.8 0 1.53-0.166 2.189-0.497s1.225-0.792 1.698-1.382c0.473-0.59 0.841-1.285 1.104-2.086s0.394-1.673 0.394-2.619c0-1.011-0.115-1.914-0.346-2.71s-0.547-1.469-0.952-2.019-0.885-0.97-1.443-1.261c-0.557-0.291-1.164-0.437-1.819-0.437-0.436 0-0.839 0.044-1.207 0.133s-0.711 0.212-1.031 0.37c-0.319 0.158-0.618 0.346-0.897 0.564s-0.54 0.461-0.782 0.728l-0.279-0.922c-0.065-0.21-0.176-0.368-0.333-0.473s-0.354-0.158-0.589-0.158h-2.328v16.565h3.759v-4.826zM106.757 22.356c-0.364 0-0.711-0.063-1.043-0.188s-0.638-0.346-0.921-0.661v-5.336c0.162-0.194 0.323-0.366 0.485-0.515s0.337-0.273 0.527-0.37c0.19-0.097 0.396-0.172 0.618-0.224s0.472-0.079 0.746-0.079c0.299 0 0.57 0.061 0.813 0.182s0.451 0.321 0.624 0.6c0.174 0.279 0.31 0.645 0.407 1.097s0.146 1.011 0.146 1.673c0 0.695-0.061 1.285-0.182 1.77s-0.29 0.879-0.504 1.182c-0.214 0.303-0.467 0.523-0.758 0.661s-0.611 0.206-0.958 0.206zM120.648 24.805c-0.659 0.21-1.417 0.315-2.274 0.315-0.429 0-0.857-0.040-1.286-0.121s-0.843-0.19-1.243-0.327c-0.4-0.137-0.77-0.301-1.109-0.491s-0.631-0.394-0.873-0.612l0.873-1.382c0.104-0.162 0.23-0.289 0.376-0.382s0.335-0.139 0.57-0.139c0.218 0 0.414 0.049 0.588 0.146s0.362 0.202 0.564 0.315 0.439 0.218 0.709 0.315c0.271 0.097 0.612 0.146 1.025 0.146 0.291 0 0.537-0.030 0.739-0.091s0.364-0.143 0.485-0.249c0.121-0.105 0.211-0.222 0.267-0.352s0.085-0.263 0.085-0.4c0-0.251-0.085-0.457-0.254-0.618s-0.392-0.301-0.667-0.418c-0.275-0.117-0.589-0.226-0.94-0.327s-0.71-0.216-1.074-0.346-0.722-0.285-1.073-0.467c-0.352-0.182-0.665-0.412-0.94-0.691s-0.498-0.62-0.667-1.025c-0.17-0.404-0.255-0.893-0.255-1.467 0-0.534 0.104-1.041 0.31-1.522s0.515-0.903 0.927-1.267c0.413-0.364 0.93-0.653 1.552-0.867s1.351-0.321 2.183-0.321c0.453 0 0.892 0.040 1.316 0.121s0.823 0.194 1.194 0.34c0.372 0.146 0.712 0.317 1.019 0.515s0.578 0.414 0.813 0.649l-0.849 1.322c-0.098 0.154-0.2 0.263-0.31 0.327s-0.248 0.097-0.418 0.097c-0.179 0-0.356-0.038-0.534-0.115l-0.576-0.249c-0.206-0.089-0.439-0.172-0.697-0.249s-0.554-0.115-0.885-0.115c-0.477 0-0.843 0.091-1.097 0.273s-0.382 0.435-0.382 0.758c0 0.234 0.083 0.428 0.248 0.582s0.387 0.289 0.661 0.406c0.275 0.117 0.586 0.228 0.934 0.333s0.703 0.222 1.067 0.352c0.364 0.129 0.719 0.281 1.067 0.455s0.659 0.388 0.934 0.643c0.275 0.255 0.495 0.564 0.661 0.928s0.248 0.8 0.248 1.31c0 0.622-0.113 1.196-0.339 1.722s-0.564 0.978-1.013 1.358c-0.448 0.38-1.002 0.675-1.661 0.885zM129.749 25.12c0.404 0 0.776-0.038 1.116-0.115s0.657-0.182 0.952-0.315 0.572-0.295 0.83-0.485c0.259-0.19 0.509-0.402 0.752-0.637l0.231 0.728c0.146 0.42 0.452 0.631 0.921 0.631h2.328v-12.575h-3.759v8.961c-0.339 0.307-0.689 0.546-1.049 0.715s-0.745 0.255-1.158 0.255c-0.55 0-0.966-0.17-1.249-0.509s-0.424-0.821-0.424-1.443v-7.979h-3.759v7.979c0 0.695 0.093 1.334 0.279 1.916s0.461 1.087 0.824 1.516c0.364 0.428 0.811 0.762 1.341 1s1.138 0.358 1.825 0.358zM143.549 15.832v9.095h-3.759v-12.575h2.328c0.234 0 0.43 0.053 0.588 0.158s0.269 0.263 0.333 0.473l0.206 0.679c0.211-0.218 0.429-0.418 0.655-0.6s0.471-0.34 0.733-0.473 0.546-0.238 0.849-0.315c0.303-0.077 0.637-0.115 1-0.115 0.76 0 1.389 0.196 1.885 0.588s0.875 0.916 1.133 1.57c0.211-0.388 0.467-0.72 0.771-0.994s0.631-0.497 0.982-0.667c0.352-0.17 0.723-0.295 1.116-0.376s0.782-0.121 1.171-0.121c0.719 0 1.357 0.107 1.916 0.321s1.025 0.525 1.4 0.934 0.661 0.909 0.855 1.504c0.195 0.594 0.291 1.267 0.291 2.019v7.991h-3.759v-7.991c0-1.302-0.558-1.952-1.673-1.952-0.509 0-0.932 0.168-1.267 0.503s-0.504 0.819-0.504 1.449v7.991h-3.759v-7.991c0-0.72-0.141-1.225-0.424-1.516s-0.699-0.437-1.249-0.437c-0.339 0-0.661 0.077-0.964 0.23s-0.588 0.36-0.855 0.618z"></path>
            <path fill="#d8d8d8" style="fill: var(--color6, #d8d8d8)" d="M4.716 0h22.232c2.604 0 4.716 2.111 4.716 4.716v22.232c0 2.604-2.111 4.716-4.716 4.716h-22.232c-2.604 0-4.716-2.111-4.716-4.716v-22.232c0-2.604 2.111-4.716 4.716-4.716z"></path>
            <path fill="#fff" style="fill: var(--color2, #fff)" d="M16.168 22.568l-7.524 3.955 1.437-8.378-6.087-5.933 8.412-1.222 3.762-7.622 3.762 7.622 8.412 1.222-6.087 5.933 1.437 8.378-7.524-3.955z"></path>
        </symbol>

        <symbol id="icon-mail" viewBox="0 0 40 32">
            <path fill="#e8e8e8" style="fill: var(--color7, #e8e8e8)" d="M36.868 0h-33.316c-0.547 0-1.059 0.134-1.522 0.356l18.101 18.101 4.057-3.899c0 0 0-0 0-0.001s0-0 0-0l14.202-14.201c-0.463-0.222-0.976-0.356-1.523-0.356z"></path>
            <path fill="#e8e8e8" style="fill: var(--color7, #e8e8e8)" d="M40.066 2.031l-13.365 13.364 13.364 13.364c0.222-0.463 0.356-0.975 0.356-1.522v-23.684c0-0.547-0.134-1.058-0.356-1.521z"></path>
            <path fill="#e8e8e8" style="fill: var(--color7, #e8e8e8)" d="M0.356 2.031c-0.222 0.463-0.356 0.975-0.356 1.522v23.684c0 0.547 0.134 1.059 0.356 1.522l13.364-13.364-13.364-13.364z"></path>
            <path fill="#e8e8e8" style="fill: var(--color7, #e8e8e8)" d="M25.027 17.069l-4.058 3.899c-0.231 0.231-0.534 0.347-0.837 0.347s-0.606-0.116-0.837-0.347l-3.9-3.9-13.365 13.364c0.463 0.222 0.976 0.356 1.523 0.356h33.316c0.547 0 1.059-0.134 1.522-0.356l-13.364-13.364z"></path>
        </symbol>
        <symbol id="icon-oval" viewBox="0 0 64 32">
            <path d="M32.043 64.086c-17.697 0-32.043-14.346-32.043-32.043s14.346-32.043 32.043-32.043c17.697 0 32.043 14.346 32.043 32.043s-14.346 32.043-32.043 32.043z"></path>
        </symbol>
        <symbol id="icon-perfomans" viewBox="0 0 43 32">
            <path fill="#58bebf" style="fill: var(--color1, #58bebf)" d="M35.965 29.58v-22.296l3.178-3.155v4.042h2.438v-8.172h-8.233v2.419h4.072l-4.22 4.189-5.682-5.64-13.649 13.547-5.515-5.474-7.772 7.714 1.724 1.711 3.535-3.509v14.623h-5.738v2.419h41.6v-2.419l-5.737-0zM29.465 6.323v23.258h-5.313v-21.851l3.365-3.34 1.948 1.933zM13.868 17.937l3.784-3.756v15.4h-5.313v-13.161l1.528 1.517z"></path>
        </symbol>
        <symbol id="icon-twitter" viewBox="0 0 40 32">
            <path fill="#1da1f2" style="fill: var(--color8, #1da1f2)" d="M12.256 31.939c14.799 0 22.891-12.26 22.891-22.891 0-0.348-0.007-0.695-0.023-1.040 1.571-1.136 2.936-2.553 4.013-4.166-1.441 0.641-2.993 1.072-4.62 1.267 1.661-0.996 2.936-2.572 3.538-4.45-1.555 0.921-3.276 1.591-5.109 1.953-1.468-1.564-3.558-2.542-5.873-2.542-4.443 0-8.046 3.603-8.046 8.044 0 0.632 0.071 1.246 0.209 1.835-6.687-0.336-12.616-3.537-16.584-8.406-0.691 1.189-1.089 2.57-1.089 4.044 0 2.791 1.421 5.255 3.58 6.697-1.32-0.040-2.56-0.403-3.644-1.006-0.001 0.034-0.001 0.067-0.001 0.103 0 3.897 2.773 7.15 6.455 7.887-0.676 0.184-1.388 0.283-2.121 0.283-0.518 0-1.022-0.051-1.512-0.145 1.024 3.197 3.995 5.523 7.516 5.588-2.754 2.158-6.223 3.444-9.992 3.444-0.649 0-1.29-0.037-1.919-0.111 3.561 2.282 7.789 3.614 12.333 3.614z"></path>
        </symbol>
        <symbol id="icon-youtube" viewBox="0 0 48 32">
            <path fill="#f00" style="fill: var(--color9, #f00)" d="M45.511 5c-0.526-1.955-2.068-3.496-4.022-4.023-3.571-0.977-17.857-0.977-17.857-0.977s-14.285 0-17.857 0.94c-1.917 0.526-3.496 2.105-4.022 4.060-0.94 3.571-0.94 10.977-0.94 10.977s0 7.443 0.94 10.977c0.526 1.955 2.068 3.496 4.023 4.023 3.609 0.977 17.856 0.977 17.856 0.977s14.285 0 17.857-0.94c1.955-0.526 3.496-2.068 4.022-4.022 0.94-3.571 0.94-10.977 0.94-10.977s0.038-7.444-0.94-11.015z"></path>
            <path fill="#fff" style="fill: var(--color2, #fff)" d="M19.084 22.819l11.879-6.842-11.879-6.842v13.684z"></path>
        </symbol>
    </defs>
</svg>
